<svg width="44" height="31" viewBox="0 0 44 31" fill="none" xmlns="http://www.w3.org/2000/svg">
<g clip-path="url(#clip0_57_2)">
<path d="M29.5093 1.96862C28.75 0.881441 27.2555 0.617225 26.1712 1.37847C25.0868 2.13972 24.8233 3.63817 25.5826 4.72534L38.2304 22.8356C38.9896 23.9228 40.4841 24.187 41.5685 23.4257C42.6528 22.6645 42.9163 21.166 42.1571 20.0789L29.5093 1.96862Z" fill="#00B2A9"/>
<path d="M17.9492 4.72523C18.7085 3.63806 18.445 2.13961 17.3606 1.37836C16.2763 0.617115 14.7818 0.88133 14.0225 1.96851L1.37475 20.0788C0.615495 21.1659 0.879021 22.6644 1.96335 23.4256C3.04769 24.1869 4.54221 23.9227 5.30147 22.8355L17.9492 4.72523Z" fill="#00B2A9"/>
<path d="M24.2079 6.48831C24.2079 5.16111 23.1348 4.08521 21.8111 4.08521C20.4873 4.08521 19.4142 5.16111 19.4142 6.48831V28.5968C19.4142 29.924 20.4873 30.9999 21.8111 30.9999C23.1348 30.9999 24.2079 29.924 24.2079 28.5968V6.48831Z" fill="#00B2A9"/>
</g>
<defs>
<clipPath id="clip0_57_2">
<rect width="44" height="31" fill="white"/>
</clipPath>
</defs>
</svg>
