<svg width="280" height="75" viewBox="0 0 280 75" fill="none" xmlns="http://www.w3.org/2000/svg">
<path d="M0.40625 73.75C0.53125 73.0625 0.734375 72.4688 1.01562 71.9688C1.26562 71.5 1.46875 70.9688 1.625 70.375C2.21875 68.9688 2.84375 67.8125 3.5 66.9062C3.625 66.4062 3.79688 65.9688 4.01562 65.5938C4.23438 65.2188 4.46875 64.875 4.71875 64.5625C5.0625 63.7188 5.35938 62.8906 5.60938 62.0781C5.85938 61.2656 6.1875 60.4688 6.59375 59.6875C7.34375 58.25 8.10938 56.7656 8.89062 55.2344C9.67188 53.7031 10.4375 52.1875 11.1875 50.6875C11.375 50.3438 11.5625 50 11.75 49.6562C11.9375 49.2812 12.1094 48.9219 12.2656 48.5781C12.4219 48.2344 12.5938 47.8906 12.7812 47.5469C13 47.1719 13.2188 46.8125 13.4375 46.4688L13.8125 44.9688C13.9688 44.4062 14.125 43.9062 14.2812 43.4688C14.2188 43.0625 14.25 42.7656 14.375 42.5781L14.75 41.875L15.0312 40.75C15.2188 40 15.4688 39.3906 15.7812 38.9219C16.0625 38.4844 16.3125 37.9062 16.5312 37.1875C16.7188 37.0625 16.875 36.875 17 36.625C17.125 36.375 17.25 36.125 17.375 35.875C17.625 35.1875 17.875 34.5156 18.125 33.8594C18.375 33.1719 18.625 32.5 18.875 31.8438C19.125 31.1875 19.375 30.5156 19.625 29.8281C19.875 29.1406 20.125 28.4375 20.375 27.7188C20.7188 26.9062 21 26.2969 21.2188 25.8906C21.4688 25.4531 21.6562 24.9375 21.7812 24.3438C22.4062 22.9062 23.0312 21.4844 23.6562 20.0781C24.2812 18.6719 24.9375 17.25 25.625 15.8125C25.8438 15.2812 26.0625 14.7812 26.2812 14.3125C26.5 13.8438 26.7188 13.4062 26.9375 13C27.1562 12.5312 27.4375 12.0469 27.7812 11.5469C28.0312 11.1719 28.25 10.7188 28.4375 10.1875C28.5938 9.8125 28.5938 9.40625 28.4375 8.96875C27.75 9 27.1406 9.21875 26.6094 9.625C26.1094 10 25.5 10.375 24.7812 10.75C24.625 10.8438 24.4531 10.9531 24.2656 11.0781C24.1094 11.1719 23.9375 11.2812 23.75 11.4062C23.5625 11.6875 23.3906 11.8594 23.2344 11.9219C23.1094 11.9844 23 12.0625 22.9062 12.1562C22.3125 12.5 21.7344 12.8906 21.1719 13.3281C20.6406 13.7344 20.0312 14.125 19.3438 14.5C19.0625 14.75 18.7656 15.0156 18.4531 15.2969C18.1719 15.5469 17.875 15.7969 17.5625 16.0469C17.25 16.2969 16.9375 16.5625 16.625 16.8438C16.3438 17.0938 16.0625 17.3438 15.7812 17.5938C15.5625 18 15.1562 18.375 14.5625 18.7188C14.25 19.0312 13.9531 19.375 13.6719 19.75C13.3906 20.125 13.0938 20.4688 12.7812 20.7812C12.7188 21.5938 12.5312 22.3594 12.2188 23.0781C11.9062 23.7969 11.5938 24.5 11.2812 25.1875C11.0938 25.6875 10.9375 26.1562 10.8125 26.5938C11.0625 26.7188 11.2969 26.6719 11.5156 26.4531C11.7344 26.2344 11.9688 26.1562 12.2188 26.2188C13.125 25.8438 13.875 25.375 14.4688 24.8125C15 24.3125 15.6562 23.7812 16.4375 23.2188C17.0625 22.7188 17.6406 22.1406 18.1719 21.4844C18.7031 20.8281 19.2188 20.1562 19.7188 19.4688C20 19.1875 20.2188 18.9531 20.375 18.7656C20.5625 18.5781 20.6875 18.4531 20.75 18.3906C20.9062 18.2344 21.125 18.1562 21.4062 18.1562C21.7188 18.4375 21.8906 18.6562 21.9219 18.8125C21.9531 18.875 21.9375 19 21.875 19.1875C21.2812 20.625 20.6875 21.7969 20.0938 22.7031C19.8125 23.1094 19.5312 23.5469 19.25 24.0156C19 24.4531 18.75 24.9062 18.5 25.375C17.8438 26.0312 17.3438 26.6719 17 27.2969C16.7188 27.8281 16.3438 28.375 15.875 28.9375C15.5625 29.5 15.25 30.0469 14.9375 30.5781C14.625 31.1094 14.2188 31.5312 13.7188 31.8438C12.5938 32.0938 11.7344 32.0781 11.1406 31.7969L9.59375 31.0938C9.46875 31 9.21875 30.9219 8.84375 30.8594C8.53125 30.7969 8.28125 30.6875 8.09375 30.5312C7.78125 30.1562 7.5625 29.8906 7.4375 29.7344C7.3125 29.5781 7.28125 29.375 7.34375 29.125C6.96875 28.75 6.78125 28.125 6.78125 27.25C7.03125 26.5938 7.14062 26.2344 7.10938 26.1719C7.07812 26.1094 7.09375 26 7.15625 25.8438C7.1875 25.7188 7.26562 25.5312 7.39062 25.2812C7.51562 25.0312 7.59375 24.8438 7.625 24.7188C7.71875 24.5625 7.79688 24.2969 7.85938 23.9219C7.92188 23.5469 8 23.25 8.09375 23.0312C8.28125 22.4688 8.625 21.8438 9.125 21.1562L9.54688 20.125C9.64062 19.875 9.78125 19.5312 9.96875 19.0938L10.4375 17.9688C10.5938 17.4375 10.6719 17.1719 10.6719 17.1719C10.7344 17.1094 10.7812 17.0312 10.8125 16.9375C11.0312 16.25 11.2344 15.75 11.4219 15.4375C11.5781 15.1875 11.6562 14.9062 11.6562 14.5938C13.1875 12.3438 15.125 10.375 17.4688 8.6875C18.3438 8 19.2656 7.3125 20.2344 6.625C21.2031 5.9375 22.1875 5.28125 23.1875 4.65625C23.6875 4.15625 24.2812 3.67188 24.9688 3.20312C25.6562 2.73438 26.3438 2.28125 27.0312 1.84375C27.2812 1.71875 27.5312 1.57812 27.7812 1.42188C28.0312 1.26562 28.2656 1.10938 28.4844 0.953125C28.9531 0.609375 29.4688 0.375 30.0312 0.25C30.4375 0.125 30.8438 0.15625 31.25 0.34375C31.875 0.71875 32.2812 0.890625 32.4688 0.859375C32.5938 0.828125 32.75 0.84375 32.9375 0.90625C33.3125 1.03125 33.625 1.3125 33.875 1.75C34.125 2.1875 34.3125 2.5625 34.4375 2.875C34.625 3.25 34.8281 3.6875 35.0469 4.1875C35.2656 4.6875 35.4375 5.28125 35.5625 5.96875L35.7031 6.90625C35.7344 7.0625 35.75 7.21875 35.75 7.375C35.7812 7.53125 35.8125 7.6875 35.8438 7.84375C35.8438 8.0625 35.875 8.39062 35.9375 8.82812C36 9.26562 36.0312 9.5625 36.0312 9.71875C35.9688 10.2812 35.7812 10.8438 35.4688 11.4062C35.1562 11.9688 34.875 12.4688 34.625 12.9062C34.4062 13.3438 34.1875 13.7969 33.9688 14.2656C33.7812 14.7031 33.6094 15.1406 33.4531 15.5781C33.1406 16.4531 32.7188 17.3438 32.1875 18.25C31.8125 18.75 31.625 19.0469 31.625 19.1406C31.625 19.2344 31.5938 19.3125 31.5312 19.375C31.2812 20.0625 31.0938 20.5156 30.9688 20.7344C30.9062 20.8594 30.8438 21 30.7812 21.1562C30.7188 21.3125 30.6562 21.4688 30.5938 21.625L29.6094 23.9219C29.4531 24.3281 29.2812 24.7344 29.0938 25.1406C28.9375 25.5469 28.7812 25.9688 28.625 26.4062C28.9688 26.3438 29.25 26.0625 29.4688 25.5625C29.8125 25.3438 30.125 24.9375 30.4062 24.3438C30.7188 24.0312 30.9688 23.75 31.1562 23.5C31.2812 23.3438 31.3906 23.1875 31.4844 23.0312C31.6094 22.875 31.7031 22.7344 31.7656 22.6094C31.8906 22.3594 32.0938 22.0938 32.375 21.8125C33.0625 21.125 33.7344 20.375 34.3906 19.5625C35.0469 18.75 35.6875 17.9375 36.3125 17.125C37.125 16.375 37.8438 15.4844 38.4688 14.4531C39.0938 13.4219 39.6562 12.375 40.1562 11.3125C40.5312 11 40.8906 10.6875 41.2344 10.375C41.5781 10.0625 41.9062 9.6875 42.2188 9.25C43 8.625 43.8281 7.82812 44.7031 6.85938C45.6094 5.85938 46.3594 5.10938 46.9531 4.60938C47.7344 3.95312 48.5938 3.4375 49.5312 3.0625C50.4688 2.6875 51.5312 2.5625 52.7188 2.6875C53.0312 3.03125 53.3125 3.4375 53.5625 3.90625C53.7812 4.3125 54.0938 4.6875 54.5 5.03125C55 6.28125 55.4219 7.60938 55.7656 9.01562C56.1094 10.4219 56.25 12.0312 56.1875 13.8438C56.0312 14.4062 55.8281 14.9219 55.5781 15.3906C55.3281 15.8281 55.125 16.4062 54.9688 17.125L54.6406 17.9688C54.6094 18.0938 54.5625 18.2344 54.5 18.3906C54.4375 18.5156 54.375 18.6562 54.3125 18.8125C54.1875 19.1875 54.0156 19.5938 53.7969 20.0312C53.6094 20.4375 53.3906 20.8906 53.1406 21.3906C52.5781 22.4531 52.2188 23.375 52.0625 24.1562C51.9062 24.3125 51.7969 24.5469 51.7344 24.8594L51.5938 25.75C51.2188 26.5312 51.0312 27.1719 51.0312 27.6719C51.0312 28.2031 50.9688 28.6562 50.8438 29.0312C50.5312 30.1562 50.25 31.2812 50 32.4062C49.75 33.5312 49.5 34.6875 49.25 35.875C49.125 36.25 49.0312 36.5938 48.9688 36.9062C48.9062 37.2188 48.8438 37.5312 48.7812 37.8438C48.6562 38.125 48.5469 38.5156 48.4531 39.0156C48.3594 39.5156 48.25 39.9062 48.125 40.1875C48.3125 40.1562 48.5 39.9844 48.6875 39.6719C48.9375 39.2969 49.125 39.0312 49.25 38.875L50.2344 37.375C50.3906 37.125 50.5469 36.875 50.7031 36.625C50.8906 36.375 51.0625 36.125 51.2188 35.875C51.4688 35.5312 51.7031 35.1875 51.9219 34.8438C52.1719 34.5 52.4062 34.1719 52.625 33.8594C53.0938 33.1406 53.5625 32.5 54.0312 31.9375C54.6562 31 55.1406 30.25 55.4844 29.6875C55.8281 29.125 56.1562 28.5312 56.4688 27.9062C56.9688 27.4062 57.375 26.9062 57.6875 26.4062C57.8438 26.1562 58.0156 25.9062 58.2031 25.6562C58.3906 25.4062 58.5938 25.1562 58.8125 24.9062C59.1875 24.125 59.5938 23.375 60.0312 22.6562C60.3438 22.125 60.5938 21.625 60.7812 21.1562C61.3438 20.4062 61.9062 19.6875 62.4688 19C63.0312 18.3125 63.625 17.625 64.25 16.9375C64.5312 16.6562 64.7812 16.4062 65 16.1875C65.25 15.9688 65.4531 15.7969 65.6094 15.6719C65.7656 15.5156 65.9375 15.375 66.125 15.25C66.3125 15.0938 66.5 14.9375 66.6875 14.7812C67.4688 13.7812 68.4062 12.8125 69.5 11.875C70.375 10.6562 71.4219 9.54688 72.6406 8.54688C73.2656 8.04688 73.8594 7.5625 74.4219 7.09375C74.9844 6.59375 75.5312 6.09375 76.0625 5.59375C76.75 5.375 77.2812 5.04688 77.6562 4.60938C78.0312 4.17188 78.4062 4.125 78.7812 4.46875C79.4062 3.96875 79.9688 3.79688 80.4688 3.95312C80.9688 4.10938 81.3125 4.25 81.5 4.375C82.2812 5.09375 82.75 5.59375 82.9062 5.875C83.0312 6.0625 83.125 6.28125 83.1875 6.53125C83.25 6.78125 83.3438 7 83.4688 7.1875L84.0312 8.59375C84.0938 8.71875 84.1562 8.85938 84.2188 9.01562C84.2812 9.14062 84.3438 9.28125 84.4062 9.4375L84.7812 10.375C85.0312 10.875 85.2656 11.4688 85.4844 12.1562C85.7031 12.8438 85.7812 13.5312 85.7188 14.2188C85.6875 14.375 85.6562 14.5469 85.625 14.7344C85.5938 14.8906 85.5625 15.0625 85.5312 15.25C85.4688 15.6562 85.375 16.0625 85.25 16.4688C85.1562 16.7188 85.0625 16.9531 84.9688 17.1719C84.875 17.3906 84.7969 17.6094 84.7344 17.8281L84.3125 19C84.25 19.1562 84.2031 19.3125 84.1719 19.4688C84.1406 19.5938 84.1094 19.7188 84.0781 19.8438C84.0156 20.1875 83.9375 20.4375 83.8438 20.5938C83.4688 21.5625 82.9688 22.7031 82.3438 24.0156C82.0312 24.6406 81.75 25.2188 81.5 25.75C81.2812 26.2812 81.0938 26.75 80.9375 27.1562C80.9062 27.7188 80.6875 28.2188 80.2812 28.6562C80.125 29.3438 79.9688 29.8438 79.8125 30.1562C79.625 30.5625 79.4375 31.0312 79.25 31.5625C79.1562 31.7812 79.0781 32.0781 79.0156 32.4531C78.9531 32.8281 78.875 33.125 78.7812 33.3438C78.5938 33.7812 78.4375 34.1094 78.3125 34.3281C78.1875 34.5469 78.0312 34.875 77.8438 35.3125C77.7188 35.8125 77.5938 36.2969 77.4688 36.7656C77.3438 37.2344 77.1562 37.6875 76.9062 38.125C76.6562 38.8125 76.4062 39.4688 76.1562 40.0938C75.9062 40.7188 75.5938 41.2812 75.2188 41.7812C73.9688 43.8125 72.9375 46.0469 72.125 48.4844C71.3438 50.8594 70.4062 53.1562 69.3125 55.375C69.2812 55.7188 69.1562 56.0938 68.9375 56.5C68.8438 56.6875 68.75 56.875 68.6562 57.0625C68.5938 57.25 68.5312 57.4375 68.4688 57.625C68.1562 58 67.9219 58.5 67.7656 59.125C67.6406 59.625 67.4688 60.2188 67.25 60.9062C67.0625 61.5312 67.0938 62.0469 67.3438 62.4531C67.5938 62.8594 67.8125 63.125 68 63.25C68.3125 63.4375 68.7656 63.5 69.3594 63.4375C69.9531 63.375 70.4062 63.2812 70.7188 63.1562C70.9062 63.0938 71.1094 63.0312 71.3281 62.9688C71.5469 62.9062 71.7812 62.8438 72.0312 62.7812C72.2812 62.7188 72.5156 62.6562 72.7344 62.5938C72.9531 62.5312 73.1562 62.4688 73.3438 62.4062C73.875 62.2188 74.2969 62.0312 74.6094 61.8438C74.7656 61.75 74.9375 61.6562 75.125 61.5625C75.3125 61.4688 75.5 61.375 75.6875 61.2812C76.0312 61.0312 76.4375 60.8438 76.9062 60.7188C77.125 60.5 77.3125 60.375 77.4688 60.3438C77.625 60.3125 77.7812 60.2188 77.9375 60.0625C78.625 59.5 79.3281 58.8125 80.0469 58C80.7031 57.25 81.4375 56.5625 82.25 55.9375C83.3438 54.25 84.7812 52.7812 86.5625 51.5312C87.25 51.9062 87.7031 52.25 87.9219 52.5625C88.1406 52.875 88.3438 53.1875 88.5312 53.5C88.5938 54.125 88.5 54.6094 88.25 54.9531C88 55.2969 87.7812 55.6875 87.5938 56.125C87.0938 56.625 86.5938 57.1406 86.0938 57.6719C85.625 58.2031 85.1562 58.7344 84.6875 59.2656C83.75 60.3594 82.7812 61.375 81.7812 62.3125C81.625 62.6562 81.4688 63.0156 81.3125 63.3906C81.1562 63.7344 81 64.0781 80.8438 64.4219C80.5 65.1406 80.0312 65.6875 79.4375 66.0625C78.9062 66.4375 78.4062 66.7969 77.9375 67.1406C77.5 67.4844 77.0938 67.8125 76.7188 68.125C75.9688 68.75 75.1562 69.2188 74.2812 69.5312C72.6562 70.5 71.0312 71.625 69.4062 72.9062C68.75 73.3438 67.9688 73.75 67.0625 74.125C66.5625 73.8438 66.3125 73.7031 66.3125 73.7031L66.125 73.5625C65.125 73.4062 64.3906 73.0156 63.9219 72.3906C63.4844 71.7656 62.9375 71.1562 62.2812 70.5625C61.4375 69.7188 60.8125 68.5625 60.4062 67.0938C60.1562 66.2812 59.9219 65.5 59.7031 64.75C59.4844 64 59.4375 63.0938 59.5625 62.0312C59.625 61.3438 59.7812 60.6875 60.0312 60.0625C60.2812 59.4375 60.5312 58.8438 60.7812 58.2812C61.3125 57.0938 61.8594 55.8906 62.4219 54.6719C63.0156 53.4219 63.625 52.1562 64.25 50.875C65.5625 48.2188 66.5938 45.75 67.3438 43.4688C67.5312 43.1562 67.6406 42.8906 67.6719 42.6719L67.8125 42.0625C68.0625 41.4375 68.3594 40.7969 68.7031 40.1406C69.0469 39.4844 69.375 38.875 69.6875 38.3125C69.875 37.4688 70.1406 36.6719 70.4844 35.9219C70.6406 35.5781 70.7969 35.2188 70.9531 34.8438C71.1406 34.4375 71.3125 34.0312 71.4688 33.625C71.8438 33.0625 72.125 32.4062 72.3125 31.6562C72.5 30.9375 72.8125 30.2812 73.25 29.6875L74.375 26.125C74.7812 24.8125 75.0625 23.5625 75.2188 22.375C75.2812 21.8438 75.2812 21.375 75.2188 20.9688C75.1562 20.5312 75.1562 20.0312 75.2188 19.4688C75.25 18.75 75.3438 17.9375 75.5 17.0312C75.625 16.1562 75.625 15.25 75.5 14.3125C75.3438 14.4375 75.1875 14.5625 75.0312 14.6875C74.875 14.7812 74.7188 14.875 74.5625 14.9688C74.4062 15.0625 74.25 15.1719 74.0938 15.2969C73.9375 15.3906 73.7812 15.5 73.625 15.625C73.2812 15.9375 72.8906 16.2344 72.4531 16.5156C72.0781 16.7656 71.7188 17.0625 71.375 17.4062C71.1875 17.5938 71.0312 17.7344 70.9062 17.8281C70.8125 17.9219 70.75 17.9844 70.7188 18.0156C70.6875 18.0469 70.6406 18.0781 70.5781 18.1094C70.5469 18.1406 70.5 18.1875 70.4375 18.25C70.0938 18.8438 69.8125 19.2031 69.5938 19.3281C69.375 19.4531 69.1562 19.6562 68.9375 19.9375C68.375 20.8125 67.9531 21.3906 67.6719 21.6719C67.5156 21.8281 67.3438 22 67.1562 22.1875C67 22.375 66.8438 22.5625 66.6875 22.75C66.6875 22.8438 66.6094 23.125 66.4531 23.5938C66.2969 24.0625 66.2188 24.3438 66.2188 24.4375C65.25 26.0938 64.3125 27.375 63.4062 28.2812C63.0625 28.8125 62.7031 29.3281 62.3281 29.8281C61.9844 30.3281 61.6406 30.8125 61.2969 31.2812C60.9531 31.75 60.6094 32.2344 60.2656 32.7344C59.9219 33.2344 59.5938 33.75 59.2812 34.2812C58.6562 35.3125 58.0469 36.0938 57.4531 36.625C56.9219 37.0938 56.375 37.75 55.8125 38.5938C55.25 39.1562 54.6875 39.8438 54.125 40.6562C53.875 41.0312 53.5938 41.3906 53.2812 41.7344C53 42.0781 52.6875 42.4062 52.3438 42.7188C51.8438 43.4062 51.3594 44.0781 50.8906 44.7344C50.4219 45.3906 49.9688 46.0938 49.5312 46.8438C49.4062 47.0938 49.125 47.625 48.6875 48.4375C48.25 49.25 47.9688 49.7812 47.8438 50.0312C47.5625 50.5312 47.3125 51.125 47.0938 51.8125C46.9062 52.4688 46.6562 53.0312 46.3438 53.5C46.0938 53.9375 45.8281 54.375 45.5469 54.8125C45.2969 55.2188 45.0312 55.625 44.75 56.0312C44.4688 56.4375 44.1875 56.8594 43.9062 57.2969C43.6562 57.7031 43.4062 58.125 43.1562 58.5625C42.875 59.2188 42.7031 59.75 42.6406 60.1562C42.5469 60.6562 42.3438 61 42.0312 61.1875C41.6562 62.0312 41.2969 62.7031 40.9531 63.2031C40.6094 63.7031 40.25 64.4062 39.875 65.3125C39.6875 65.75 39.3906 66.0625 38.9844 66.25C38.5781 66.4375 38.1875 66.4375 37.8125 66.25C37.3438 66.0625 36.9375 65.6875 36.5938 65.125C36.4375 64.8438 36.2812 64.5938 36.125 64.375C35.9688 64.125 35.8125 63.9062 35.6562 63.7188C35.5 63.1562 35.3281 62.7188 35.1406 62.4062C34.9219 62.0625 34.8125 61.625 34.8125 61.0938C34.75 60.8125 34.7656 60.5312 34.8594 60.25C34.9531 59.9688 34.9688 59.6875 34.9062 59.4062C34.7188 58.6562 34.7188 58.0469 34.9062 57.5781L35.375 56.3125C35.5938 55.6562 35.8125 55.25 36.0312 55.0938C36.0938 54.875 36.1562 54.6719 36.2188 54.4844C36.2812 54.2656 36.3281 54.0625 36.3594 53.875C36.4219 53.6875 36.4688 53.5 36.5 53.3125C36.5625 53.0938 36.625 52.875 36.6875 52.6562C36.75 52.5 36.8125 52.3438 36.875 52.1875C36.9375 52.0312 37 51.8906 37.0625 51.7656C37.125 51.6094 37.1875 51.4688 37.25 51.3438C37.3125 51.1875 37.375 51.0312 37.4375 50.875L37.7656 50.0312C37.8281 49.9062 37.875 49.7812 37.9062 49.6562C37.9688 49.5 38.0312 49.3438 38.0938 49.1875C38.1562 48.875 38.1875 48.6875 38.1875 48.625C38.1875 48.4688 38.25 48.2812 38.375 48.0625C38.4375 47.7812 38.5 47.5 38.5625 47.2188C38.6562 46.9375 38.7656 46.6719 38.8906 46.4219C39.0156 46.1719 39.125 45.9062 39.2188 45.625C39.3438 45.3125 39.4688 45 39.5938 44.6875C39.75 44.25 40 43.5938 40.3438 42.7188C40.7188 41.8438 41.0781 41 41.4219 40.1875C41.7656 39.375 42 38.875 42.125 38.6875C42.25 38.375 42.4062 38 42.5938 37.5625C42.7812 37.125 42.9688 36.7188 43.1562 36.3438C43.5 35.7188 43.7031 35.2969 43.7656 35.0781C43.7969 34.9844 43.8125 34.8438 43.8125 34.6562C43.5625 34.2188 43.5781 33.6406 43.8594 32.9219C44.1406 32.2031 44.4375 31.4688 44.75 30.7188C44.9062 30.3438 45.0312 29.9688 45.125 29.5938C45.25 29.1875 45.3438 28.7812 45.4062 28.375C45.5625 27.5312 45.75 26.75 45.9688 26.0312C46.125 25.5 46.2969 24.9375 46.4844 24.3438C46.7031 23.7188 46.9219 23.0625 47.1406 22.375C47.5781 21.0938 47.875 19.75 48.0312 18.3438C48.0312 18.0938 48.0312 17.8594 48.0312 17.6406C48.0625 17.3906 48.0938 17.1562 48.125 16.9375C48.1875 16.5 48 16.25 47.5625 16.1875C47.4375 15.875 47.3125 15.5625 47.1875 15.25C47.0625 14.9375 46.875 14.6875 46.625 14.5C45.9688 14.5 45.4844 14.7031 45.1719 15.1094C45.0156 15.3281 44.8438 15.5312 44.6562 15.7188C44.4688 15.9062 44.2812 16.0938 44.0938 16.2812C43.75 16.75 43.3906 17.2031 43.0156 17.6406C42.6719 18.0469 42.2969 18.4375 41.8906 18.8125C41.4844 19.1875 41.0938 19.5938 40.7188 20.0312C40.375 20.4688 40.0312 20.9375 39.6875 21.4375C39 22.125 38.25 22.9688 37.4375 23.9688C36.625 24.9688 35.9688 25.8125 35.4688 26.5C35.3125 26.9688 35.0625 27.3125 34.7188 27.5312C34.3125 27.7812 34 28.0625 33.7812 28.375C33.625 28.5625 33.4531 28.7656 33.2656 28.9844C33.0781 29.2031 32.875 29.4375 32.6562 29.6875C32.4375 29.9375 32.2344 30.1875 32.0469 30.4375C31.8594 30.6875 31.6875 30.9375 31.5312 31.1875C31.2812 31.5 31.0156 31.8125 30.7344 32.125C30.4531 32.4375 30.1562 32.75 29.8438 33.0625C29.7188 33.2188 29.5312 33.4844 29.2812 33.8594C29.1875 33.9844 29.0781 34.125 28.9531 34.2812C28.8594 34.4375 28.75 34.5938 28.625 34.75C28.0312 35.3438 27.6562 35.7812 27.5 36.0625C27.3125 36.4062 27.0625 36.6875 26.75 36.9062C26.3125 37.75 25.8594 38.5625 25.3906 39.3438L23.9375 41.875C23.6875 42.0312 23.5 42.25 23.375 42.5312C23.2188 42.9062 23.0625 43.1875 22.9062 43.375C22.75 44.125 22.5469 44.6875 22.2969 45.0625C22.0156 45.4688 21.7812 45.9375 21.5938 46.4688C20.6562 47.9062 19.875 49.2031 19.25 50.3594C18.625 51.5156 18 52.7188 17.375 53.9688C17.0625 54.5625 16.875 54.9375 16.8125 55.0938C16.7812 55.1875 16.6875 55.3125 16.5312 55.4688C16.4375 55.6875 16.3438 55.9062 16.25 56.125C16.1562 56.3125 16.0469 56.5 15.9219 56.6875C15.7969 56.875 15.6875 57.0625 15.5938 57.25C15.5 57.4375 15.4062 57.625 15.3125 57.8125C15.2188 57.9375 15.1406 58.125 15.0781 58.375C15.0469 58.5625 14.9375 58.7188 14.75 58.8438C14.0312 60.9062 13.2031 62.7656 12.2656 64.4219C11.2969 66.1406 10.4375 68 9.6875 70C9.53125 70.1562 9.4375 70.3281 9.40625 70.5156C9.375 70.7344 9.28125 70.9375 9.125 71.125C8.4375 71.8125 7.98438 72.0938 7.76562 71.9688C7.54688 71.8438 7.28125 71.7812 6.96875 71.7812C6.71875 71.7812 6.51562 71.875 6.35938 72.0625C6.23438 72.25 5.9375 72.3438 5.46875 72.3438C4.90625 72.3438 4.5625 72.4062 4.4375 72.5312C4.3125 72.6562 4.0625 72.8125 3.6875 73C3.1875 73.3125 2.85938 73.5 2.70312 73.5625C2.54688 73.625 2.40625 73.5938 2.28125 73.4688C2.25 73.6562 2.125 73.75 1.90625 73.75C1.75 73.75 1.59375 73.875 1.4375 74.125C1.3125 73.9688 1.15625 73.9062 0.96875 73.9375C0.78125 74 0.59375 73.9375 0.40625 73.75ZM84.5 49.2812C84.9062 49.0625 85.4062 48.5938 86 47.875C86.5938 47.125 87.1719 46.4062 87.7344 45.7188C88.2969 45 88.7188 44.5938 89 44.5C89.1875 44.1875 89.3594 43.9219 89.5156 43.7031C89.6719 43.4844 89.9062 43.2812 90.2188 43.0938C90.7188 42.1875 91.375 41.4219 92.1875 40.7969C93.0312 40.1406 93.8125 39.4375 94.5312 38.6875C95.125 38.4375 95.7188 38.1562 96.3125 37.8438C96.9375 37.5312 97.5469 37.1719 98.1406 36.7656C99.3594 35.9531 100.719 35.5312 102.219 35.5C102.906 35.8125 103.578 35.9062 104.234 35.7812C104.859 35.6562 105.469 35.8125 106.062 36.25C106.406 36.8438 106.688 37.2031 106.906 37.3281C107.125 37.4531 107.312 37.625 107.469 37.8438C107.719 38.625 107.906 39.1406 108.031 39.3906C108.188 39.6406 108.281 39.9062 108.312 40.1875C108.344 40.6562 108.375 41.0625 108.406 41.4062C108.438 41.7188 108.469 41.9844 108.5 42.2031C108.531 42.6094 108.531 43 108.5 43.375C108.312 44.9688 108 46.5625 107.562 48.1562C107.5 48.3438 107.438 48.5312 107.375 48.7188C107.312 48.9062 107.25 49.1094 107.188 49.3281C107.062 49.7344 106.906 50.0938 106.719 50.4062C106.25 51 105.922 51.4844 105.734 51.8594C105.453 52.3594 105.25 52.6875 105.125 52.8438C104.75 53.2188 104.391 53.5625 104.047 53.875C103.734 54.1875 103.438 54.4688 103.156 54.7188C102.875 54.875 102.594 55.0469 102.312 55.2344C102.031 55.3906 101.75 55.5625 101.469 55.75C100.938 56.0938 100.312 56.3438 99.5938 56.5L98.75 57.0156C98.4688 57.2031 98.1562 57.3125 97.8125 57.3438C97.25 57.75 96.625 58.0781 95.9375 58.3281C95.625 58.4531 95.2969 58.5781 94.9531 58.7031C94.6406 58.8281 94.3125 58.9688 93.9688 59.125C93.5 59.3125 93.0938 59.5312 92.75 59.7812C92.4062 60.0312 91.9688 60.2812 91.4375 60.5312C91.1562 60.625 90.7031 60.7344 90.0781 60.8594C89.4844 60.9531 89.0625 61.0625 88.8125 61.1875C89.125 61.8125 89.25 62.5938 89.1875 63.5312C89.1562 64.4062 89.3125 65.1875 89.6562 65.875C90.4688 66.0625 91.3594 66.2031 92.3281 66.2969C93.2969 66.3906 94.2188 66.375 95.0938 66.25C95.25 66.2188 95.4062 66.1719 95.5625 66.1094C95.75 66.0469 95.9375 65.9844 96.125 65.9219C96.3125 65.8594 96.5 65.7969 96.6875 65.7344C96.875 65.6719 97.0625 65.625 97.25 65.5938C97.9375 65.4688 98.6094 65.3125 99.2656 65.125C99.9219 64.9375 100.5 64.6875 101 64.375C102.812 63.75 104.562 62.9062 106.25 61.8438C107.938 60.7812 109.406 59.625 110.656 58.375C111.406 57.875 112.234 57.1875 113.141 56.3125C114.047 55.4375 114.75 54.625 115.25 53.875C116.188 52.875 117.016 52.0938 117.734 51.5312C118.453 50.9688 119.125 50.7188 119.75 50.7812C120.25 50.7812 120.734 51.0781 121.203 51.6719C121.672 52.2656 121.625 52.9062 121.062 53.5938C120.469 53.9688 119.812 54.5312 119.094 55.2812C118.406 56.0312 117.688 56.5625 116.938 56.875C116.406 57.2188 115.703 57.9062 114.828 58.9375C113.984 59.9062 113.281 60.6562 112.719 61.1875C112.594 61.3125 112.453 61.4531 112.297 61.6094C112.141 61.7656 111.953 61.9219 111.734 62.0781C111.328 62.3906 111 62.7188 110.75 63.0625C109.781 63.875 108.844 64.5625 107.938 65.125C107.594 65 107.312 65.0625 107.094 65.3125C106.812 65.6562 106.562 65.9062 106.344 66.0625C106.25 66.125 106.156 66.1875 106.062 66.25C105.969 66.3125 105.859 66.375 105.734 66.4375C105.609 66.5 105.5 66.5625 105.406 66.625C105.312 66.6875 105.219 66.75 105.125 66.8125C104.625 67.25 104.078 67.6875 103.484 68.125C102.891 68.5625 102.281 68.9375 101.656 69.25C101.031 69.625 100.406 69.9688 99.7812 70.2812C99.1562 70.625 98.5312 70.9219 97.9062 71.1719C97.2812 71.4219 96.6562 71.7188 96.0312 72.0625C95.4375 72.4062 94.8438 72.7812 94.25 73.1875L93.2188 73.3281C93.0625 73.3594 92.9062 73.375 92.75 73.375C92.5938 73.4062 92.4375 73.4375 92.2812 73.4688C91.9375 73.5938 91.6094 73.6562 91.2969 73.6562C90.9844 73.6562 90.5938 73.5938 90.125 73.4688C88.0625 72.9062 86.375 71.9062 85.0625 70.4688C84.875 70.2812 84.6719 70.1094 84.4531 69.9531C84.2656 69.7656 84.0625 69.5938 83.8438 69.4375C83.3438 69.0625 83 68.7188 82.8125 68.4062C82.5312 67.9375 82.25 67.2031 81.9688 66.2031C81.6562 65.2031 81.3906 64.1875 81.1719 63.1562C80.9531 62.0938 80.8438 61.2812 80.8438 60.7188C81.0312 60.3438 81.2344 59.7031 81.4531 58.7969C81.6719 57.8594 81.8594 56.9375 82.0156 56.0312C82.1719 55.0938 82.25 54.4375 82.25 54.0625C82.375 53.9375 82.625 53.5312 83 52.8438C83.3438 52.125 83.6719 51.4062 83.9844 50.6875C84.3281 49.9375 84.5 49.4688 84.5 49.2812ZM99.5938 43.2812C99.1562 43.8438 98.7188 44.375 98.2812 44.875C97.8438 45.375 97.3438 45.8438 96.7812 46.2812C96.4062 46.9688 95.9688 47.5938 95.4688 48.1562C94.9688 48.7188 94.4688 49.25 93.9688 49.75C93.7188 50.25 93.4375 50.6406 93.125 50.9219C92.8125 51.2031 92.4688 51.5 92.0938 51.8125C91.6875 52.5 91.1875 53.1562 90.5938 53.7812C90 54.4062 89.875 55.125 90.2188 55.9375C90.9062 56.0625 91.5938 55.9688 92.2812 55.6562C92.9688 55.3438 93.5625 55.0625 94.0625 54.8125C94.3125 54.6562 94.5625 54.5156 94.8125 54.3906C95.0938 54.2656 95.3594 54.1406 95.6094 54.0156C95.8594 53.8906 96.1094 53.7656 96.3594 53.6406C96.6094 53.5156 96.8438 53.375 97.0625 53.2188L99.5 50.7812C99.875 50.4375 100.25 50.0312 100.625 49.5625C100.781 49.3438 100.938 49.125 101.094 48.9062C101.281 48.6562 101.469 48.4062 101.656 48.1562C101.812 47.4688 102.062 46.8281 102.406 46.2344C102.781 45.6094 102.938 44.9688 102.875 44.3125C102.844 44.0312 102.734 43.7031 102.547 43.3281C102.359 42.9531 102.25 42.6562 102.219 42.4375C101.562 42.4375 101.078 42.5469 100.766 42.7656C100.609 42.8906 100.422 43 100.203 43.0938C100.016 43.1562 99.8125 43.2188 99.5938 43.2812ZM125.656 47.3125C126.094 47.125 126.562 46.8594 127.062 46.5156C127.562 46.1719 128 45.8438 128.375 45.5312C129.219 44.9062 129.906 44.3438 130.438 43.8438C130.969 43.3438 131.656 42.7812 132.5 42.1562C132.719 42 132.922 41.8438 133.109 41.6875C133.328 41.5312 133.516 41.3906 133.672 41.2656C133.828 41.1094 133.984 40.9688 134.141 40.8438C134.328 40.7188 134.5 40.5938 134.656 40.4688C134.875 40.3438 135.172 40.1562 135.547 39.9062C135.922 39.6562 136.219 39.4688 136.438 39.3438C136.875 39.1562 137.281 38.9844 137.656 38.8281C138.031 38.6719 138.375 38.5312 138.688 38.4062C138.75 38.375 138.953 38.2656 139.297 38.0781C139.547 37.9219 139.781 37.8438 140 37.8438C140.531 37.7812 140.969 37.8906 141.312 38.1719C141.656 38.4219 142 38.625 142.344 38.7812C142.844 39.0625 143.391 39.3438 143.984 39.625C144.516 39.8438 145 40.1875 145.438 40.6562C145.812 41.3125 146.172 41.8438 146.516 42.25C146.953 42.7812 147.281 43.4062 147.5 44.125C147.562 44.375 147.594 44.625 147.594 44.875V45.8125C147.75 46.8438 147.984 47.7656 148.297 48.5781C148.641 49.3906 148.5 50.25 147.875 51.1562C146.062 52.2188 144.156 53.125 142.156 53.875C141.656 54.25 141.141 54.5781 140.609 54.8594C140.359 54.9844 140.094 55.125 139.812 55.2812C139.562 55.4375 139.312 55.5938 139.062 55.75C138.562 56.4375 137.953 57 137.234 57.4375C136.578 57.8438 135.969 58.3438 135.406 58.9375C135.656 59.75 135.969 60.4375 136.344 61C136.719 61.5625 137.156 62.0938 137.656 62.5938C138.031 63.2188 138.562 63.6562 139.25 63.9062C139.562 64.0312 140.062 64.1406 140.75 64.2344C141.438 64.3281 141.938 64.3438 142.25 64.2812C142.656 64.125 143.094 63.9844 143.562 63.8594C144 63.7344 144.469 63.5625 144.969 63.3438C145.812 63.3125 146.453 63.0156 146.891 62.4531C147.391 61.8281 147.844 61.375 148.25 61.0938C148.406 60.9688 148.562 60.8594 148.719 60.7656C148.875 60.6406 149.031 60.5469 149.188 60.4844C149.438 60.3594 149.75 60.0938 150.125 59.6875C150.281 59.2188 150.562 58.8125 150.969 58.4688C151.781 57.6562 152.531 57.0938 153.219 56.7812C153.656 56.1562 154.219 55.7812 154.906 55.6562C155.594 55.5312 156.188 55.2812 156.688 54.9062L158 53.9688C158.219 53.8125 158.422 53.6562 158.609 53.5C158.828 53.3438 159.031 53.1875 159.219 53.0312C159.406 52.875 159.594 52.7188 159.781 52.5625C160 52.4062 160.219 52.25 160.438 52.0938C160.625 51.9688 160.812 51.8594 161 51.7656C161.188 51.6406 161.359 51.5469 161.516 51.4844C161.859 51.3281 162.125 51.0938 162.312 50.7812C162.531 50.6562 162.75 50.5625 162.969 50.5C163.062 50.4688 163.156 50.4375 163.25 50.4062C163.344 50.375 163.438 50.3438 163.531 50.3125C163.688 50.5312 163.812 50.7188 163.906 50.875C164.031 51.0312 164.109 51.1406 164.141 51.2031C164.234 51.3281 164.281 51.5 164.281 51.7188C164.25 52.0312 164.125 52.2344 163.906 52.3281C163.688 52.4219 163.562 52.625 163.531 52.9375C162.844 53.375 162.141 53.8281 161.422 54.2969C160.703 54.7656 160.031 55.2812 159.406 55.8438C159.375 56.1562 159.297 56.3906 159.172 56.5469C159.141 56.6094 159.094 56.7031 159.031 56.8281C158.969 56.9219 158.906 57.0312 158.844 57.1562C158.062 57.6875 157.25 58.375 156.406 59.2188C155.688 59.9375 154.875 60.6562 153.969 61.375C153.75 61.5 153.453 61.7188 153.078 62.0312C152.766 62.3125 152.438 62.5312 152.094 62.6875C151.156 63.5625 150.219 64.4219 149.281 65.2656C148.344 66.1094 147.344 66.875 146.281 67.5625C146 67.7188 145.688 67.9219 145.344 68.1719C145.094 68.3594 144.719 68.5312 144.219 68.6875C143.844 69.0312 143.453 69.2188 143.047 69.25C142.672 69.2812 142.281 69.4062 141.875 69.625C141.062 69.9688 140.422 70.2969 139.953 70.6094C139.453 70.9219 138.812 71.1562 138.031 71.3125C137.656 71.4688 137.297 71.4688 136.953 71.3125C136.672 71.1875 136.25 71.1562 135.688 71.2188C135.219 70.9375 134.781 70.7812 134.375 70.75C134.312 70.5625 134.078 70.1719 133.672 69.5781C133.266 68.9844 133 68.625 132.875 68.5C132.656 67.7188 132.406 67.1406 132.125 66.7656C132 66.6094 131.875 66.4375 131.75 66.25C131.625 66.0625 131.5 65.875 131.375 65.6875C131.062 65.1875 130.859 64.6406 130.766 64.0469C130.672 63.4531 130.469 62.9062 130.156 62.4062C130.219 62.0625 130.172 61.8281 130.016 61.7031C129.859 61.5469 129.812 61.3438 129.875 61.0938C129.094 60.5 128.641 60.1094 128.516 59.9219L128.094 59.2188V58C128.094 57.875 128.156 57.75 128.281 57.625C128.656 57.25 129.078 56.9219 129.547 56.6406C129.984 56.3906 130.375 56.0625 130.719 55.6562C131 55.625 131.266 55.5 131.516 55.2812L132.219 54.7188C132.594 54.4688 132.953 54.2188 133.297 53.9688C133.672 53.7188 134.031 53.4844 134.375 53.2656C135.094 52.7656 135.875 52.2812 136.719 51.8125C137.344 51.5 137.734 50.9688 137.891 50.2188C138.047 49.4688 138.188 48.75 138.312 48.0625C137.938 47.4375 137.672 47.125 137.516 47.125C137.359 47.125 137.219 47.0625 137.094 46.9375C136.906 46.7812 136.75 46.6094 136.625 46.4219C136.5 46.2031 136.312 46.0938 136.062 46.0938C135.875 46.1562 135.625 46.2812 135.312 46.4688C135 46.6562 134.75 46.8125 134.562 46.9375C134.031 47.25 133.5 47.5469 132.969 47.8281C132.438 48.0781 131.906 48.3281 131.375 48.5781C130.375 49.0156 129.344 49.5625 128.281 50.2188L126.734 50.9688C126.484 51.0938 126.25 51.2188 126.031 51.3438C125.812 51.4375 125.625 51.5312 125.469 51.625C125.344 51.6875 125.203 51.7969 125.047 51.9531C124.891 52.1094 124.75 52.25 124.625 52.375C124.094 53.5 123.703 54.2656 123.453 54.6719C123.109 55.2344 122.844 55.75 122.656 56.2188C122.5 56.625 122.312 56.9375 122.094 57.1562C121.781 57.6562 121.531 58.1562 121.344 58.6562C121.156 59.1562 120.875 59.625 120.5 60.0625C120.375 60.8125 120.141 61.6094 119.797 62.4531C119.641 62.8594 119.484 63.2812 119.328 63.7188C119.172 64.125 119.031 64.5312 118.906 64.9375C118.719 65.6875 118.484 66.375 118.203 67C117.922 67.625 117.406 68.0312 116.656 68.2188C116.375 68.6562 116.203 69.0312 116.141 69.3438C116.078 69.6562 115.906 70.0312 115.625 70.4688C115.469 70.5625 115.234 70.6406 114.922 70.7031C114.703 70.7344 114.438 70.8438 114.125 71.0312C114 71.0312 113.594 71.3125 112.906 71.875C112.188 72.4375 111.75 72.7188 111.594 72.7188C111.094 72.8438 110.766 72.8281 110.609 72.6719C110.453 72.4844 110.25 72.4688 110 72.625C109.625 71.9062 109.312 71.4375 109.062 71.2188C109.125 70.9688 109.188 70.7344 109.25 70.5156C109.312 70.2969 109.359 70.0781 109.391 69.8594C109.453 69.5156 109.625 69.1562 109.906 68.7812C110.094 68.5312 110.312 68.2344 110.562 67.8906C110.812 67.5469 111.031 67.2188 111.219 66.9062C111.375 66.6562 111.422 66.4219 111.359 66.2031C111.328 65.9531 111.375 65.7188 111.5 65.5C111.688 65.0625 111.859 64.7344 112.016 64.5156C112.141 64.3594 112.25 64.2031 112.344 64.0469C112.438 63.8594 112.531 63.6875 112.625 63.5312C112.844 63 113.109 62.4062 113.422 61.75C113.578 61.4688 113.719 61.1719 113.844 60.8594C113.969 60.5469 114.094 60.2188 114.219 59.875C114.312 59.5312 114.406 59.1875 114.5 58.8438C114.562 58.5 114.625 58.1719 114.688 57.8594C114.844 57.1094 115.062 56.4375 115.344 55.8438C115.656 55.1562 115.969 54.4219 116.281 53.6406C116.594 52.8594 116.812 52.125 116.938 51.4375C116.969 51.125 117.062 50.875 117.219 50.6875C117.312 50.5625 117.438 50.3125 117.594 49.9375C117.656 49.7812 117.719 49.625 117.781 49.4688C117.875 49.2812 117.953 49.0781 118.016 48.8594C118.078 48.6406 118.156 48.4375 118.25 48.25C118.344 48.0625 118.438 47.875 118.531 47.6875C118.812 47.375 118.984 47.0938 119.047 46.8438C119.109 46.625 119.188 46.4688 119.281 46.375C119.344 46.2812 119.422 46.1094 119.516 45.8594C119.578 45.6719 119.656 45.5312 119.75 45.4375C119.875 45.125 120.031 44.8125 120.219 44.5C120.406 44.1875 120.562 43.875 120.688 43.5625C120.844 43.375 121 42.9688 121.156 42.3438C121.469 42.0312 121.625 41.7188 121.625 41.4062C121.812 40.6875 121.953 40.0312 122.047 39.4375C122.141 38.8125 122.375 38.1562 122.75 37.4688C122.875 37.0312 122.984 36.6562 123.078 36.3438C123.172 36.0312 123.234 35.7656 123.266 35.5469C123.359 35.1719 123.625 34.6562 124.062 34C124.156 33.75 124.25 33.5 124.344 33.25C124.469 32.9688 124.594 32.7031 124.719 32.4531C124.844 32.2031 124.953 31.9531 125.047 31.7031C125.172 31.4219 125.281 31.1562 125.375 30.9062L125.938 29.4531C126.094 29.0781 126.25 28.5625 126.406 27.9062C126.625 27.4688 126.812 27.0781 126.969 26.7344C127.156 26.3594 127.312 26.0469 127.438 25.7969C127.719 25.2031 128 24.6562 128.281 24.1562C128.531 23.6562 128.734 23.2188 128.891 22.8438C129.078 22.4375 129.234 22.1094 129.359 21.8594C129.484 21.6094 129.609 21.3594 129.734 21.1094C129.859 20.8594 130 20.625 130.156 20.4062C130.375 19.8438 130.516 19.3906 130.578 19.0469C130.672 18.6406 130.812 18.25 131 17.875C131.531 17.1875 131.875 16.5938 132.031 16.0938C132.094 15.875 132.156 15.6719 132.219 15.4844C132.312 15.2656 132.406 15.0625 132.5 14.875C133.125 13.4375 133.844 11.9688 134.656 10.4688C135.469 8.96875 136.438 7.65625 137.562 6.53125L138.547 5.59375C138.953 5.1875 139.25 4.8125 139.438 4.46875C140 3.90625 140.5 3.48438 140.938 3.20312C141.375 2.92188 141.844 2.53125 142.344 2.03125C143.188 2.21875 143.672 2.35938 143.797 2.45312C143.953 2.54688 144.094 2.59375 144.219 2.59375C144.938 3.65625 145.219 5 145.062 6.625C145.062 7.0625 144.969 7.5 144.781 7.9375C144.594 8.34375 144.5 8.78125 144.5 9.25C144.438 9.5625 144.422 9.78125 144.453 9.90625C144.484 10.0625 144.406 10.2188 144.219 10.375C144.094 11.0625 143.906 11.7031 143.656 12.2969C143.406 12.8906 143.156 13.4688 142.906 14.0312C141.938 16.3125 140.953 18.2188 139.953 19.75C138.984 21.2188 138 22.9688 137 25C136.562 25.6875 136.172 26.3594 135.828 27.0156C135.484 27.6719 135.156 28.4375 134.844 29.3125C134.469 30.0625 134.062 30.8125 133.625 31.5625C133.188 32.3125 132.656 33 132.031 33.625C131.625 34.4062 131.297 35.0781 131.047 35.6406C130.734 36.3594 130.344 37 129.875 37.5625C129.688 38.3125 129.281 39.0625 128.656 39.8125C128.438 40.2812 128.203 40.7188 127.953 41.125C127.766 41.4062 127.594 41.875 127.438 42.5312L126.453 45.0156C126.297 45.4219 126.141 45.8281 125.984 46.2344C125.859 46.6094 125.75 46.9688 125.656 47.3125ZM177.875 23.0312L178.812 23.3125C178.938 23.4688 179 23.6562 179 23.875C179 24.0312 179.094 24.1875 179.281 24.3438C179.156 24.9062 179.047 25.4844 178.953 26.0781C178.859 26.6719 178.812 27.25 178.812 27.8125C178.812 28.0312 178.891 28.25 179.047 28.4688C179.203 28.6875 179.281 28.875 179.281 29.0312C178.969 29.75 178.734 30.1875 178.578 30.3438C178.422 30.5 178.344 30.6562 178.344 30.8125C178.031 30.9375 177.797 31.125 177.641 31.375C177.484 31.625 177.219 31.75 176.844 31.75C176.719 31.9375 176.578 32.0781 176.422 32.1719C176.234 32.2969 176.125 32.4688 176.094 32.6875C175.062 33.125 173.938 33.0938 172.719 32.5938C172.375 32 171.938 31.5938 171.406 31.375C170.594 30.1875 170.562 28.7812 171.312 27.1562C171.438 26.8438 171.578 26.5156 171.734 26.1719C171.891 25.8281 172.031 25.5938 172.156 25.4688C172.812 25 173.312 24.6875 173.656 24.5312C173.781 24.4688 173.906 24.4062 174.031 24.3438C174.188 24.25 174.328 24.1562 174.453 24.0625C174.672 23.9062 175 23.75 175.438 23.5938C175.625 23.5312 175.797 23.5 175.953 23.5C176.203 23.5 176.438 23.4375 176.656 23.3125C176.781 23.2812 176.891 23.25 176.984 23.2188C177.109 23.1875 177.219 23.1562 177.312 23.125C177.562 23.0625 177.75 23.0312 177.875 23.0312ZM163.812 64.5625L164.281 64.75C164.844 64.5 165.531 64.4062 166.344 64.4688C167.188 64.5312 167.844 64.4062 168.312 64.0938C168.625 63.8438 168.844 63.6562 168.969 63.5312C169.156 63.3438 169.375 63.2812 169.625 63.3438C170.625 62.9688 171.469 62.5938 172.156 62.2188C172.875 61.8438 173.625 61.5625 174.406 61.375C174.906 61.1875 175.344 60.9062 175.719 60.5312C177 60.125 178.078 59.5469 178.953 58.7969C179.859 58.0469 180.844 57.25 181.906 56.4062C182.781 55.9062 183.516 55.4688 184.109 55.0938C184.703 54.7188 185.344 54.25 186.031 53.6875C186.188 53.3438 186.359 53.1094 186.547 52.9844C186.703 52.8906 186.875 52.6875 187.062 52.375C188.188 52.375 188.812 52.8125 188.938 53.6875C188.625 54.375 188.203 54.9375 187.672 55.375C187.109 55.8438 186.625 56.3438 186.219 56.875C185.719 57.1875 185.312 57.4688 185 57.7188C184.688 57.9688 184.375 58.3438 184.062 58.8438C184.031 58.8438 183.844 58.9844 183.5 59.2656C183.188 59.5469 183 59.6875 182.938 59.6875C182.438 60.2812 182.062 60.6406 181.812 60.7656C181.562 60.8906 181.125 61.2188 180.5 61.75C180.094 62.4375 179.531 63 178.812 63.4375C177.469 64.7188 176.047 65.7969 174.547 66.6719C173.766 67.1094 173.031 67.5625 172.344 68.0312C171.656 68.4688 171 68.9062 170.375 69.3438C170.062 69.5312 169.844 69.7031 169.719 69.8594C169.594 70.0156 169.375 70.2188 169.062 70.4688C168.75 70.7188 168.266 70.9688 167.609 71.2188C166.953 71.4688 166.375 71.6875 165.875 71.875C165.469 72.125 165.125 72.3125 164.844 72.4375C163.438 72.5 162.375 72.2812 161.656 71.7812C160.844 71.3438 160.219 71 159.781 70.75C159.344 70.5 158.969 70.0938 158.656 69.5312C157.938 69.1875 157.516 68.6094 157.391 67.7969C157.328 67.3594 157.25 66.9375 157.156 66.5312C157.062 66.125 156.969 65.7188 156.875 65.3125C156.812 65 156.75 64.6406 156.688 64.2344C156.625 63.8281 156.625 63.4062 156.688 62.9688C156.844 62.25 156.938 61.5156 156.969 60.7656C157 60.0781 157.156 59.4062 157.438 58.75C157.719 58.125 157.891 57.4375 157.953 56.6875C158.016 55.9375 158.188 55.25 158.469 54.625C158.875 54 159.047 53.6562 158.984 53.5938C158.953 53.5625 158.969 53.4688 159.031 53.3125L159.453 52.75C159.547 52.625 159.688 52.4062 159.875 52.0938L160.438 50.6875C160.719 50.1562 161 49.7188 161.281 49.375C161.562 49 161.812 48.4688 162.031 47.7812C162.188 47.3438 162.359 47 162.547 46.75C162.672 46.5938 162.781 46.4375 162.875 46.2812C163 46.0938 163.125 45.9062 163.25 45.7188C163.406 45.4062 163.562 45.0156 163.719 44.5469C163.781 44.3281 163.844 44.125 163.906 43.9375C164 43.7188 164.094 43.5 164.188 43.2812C164.375 42.7812 164.609 42.2812 164.891 41.7812C165.172 41.2812 165.469 40.7812 165.781 40.2812C166.031 39.7812 166.25 39.4062 166.438 39.1562C166.625 38.9062 167 38.75 167.562 38.6875C167.844 38.625 168.125 38.6406 168.406 38.7344C168.75 38.8281 169.062 38.8125 169.344 38.6875C170.156 38.3125 170.719 38.125 171.031 38.125C171.344 38.125 171.562 38.0312 171.688 37.8438C172.344 37.875 172.844 38.0938 173.188 38.5C173.531 38.875 173.906 39.25 174.312 39.625C173.938 41.4375 173.516 42.8281 173.047 43.7969C172.578 44.7656 172.062 45.7812 171.5 46.8438C171.188 47.3438 170.875 47.9062 170.562 48.5312C170.25 49.1562 169.969 49.7188 169.719 50.2188C169.406 50.9062 169.078 51.5156 168.734 52.0469C168.328 52.6719 168.031 53.2812 167.844 53.875L167.422 54.7656C167.234 55.1406 167.094 55.4375 167 55.6562C166.938 55.875 166.859 56.0938 166.766 56.3125C166.703 56.5 166.609 56.6719 166.484 56.8281C166.359 56.9844 166.25 57.1562 166.156 57.3438C166.062 57.5 165.969 57.6562 165.875 57.8125C165.688 58.1875 165.5 58.5625 165.312 58.9375C165.125 59.3125 164.969 59.7188 164.844 60.1562C164.531 60.8438 164.344 61.2969 164.281 61.5156C164.25 61.5781 164.219 61.6562 164.188 61.75C164.156 61.8125 164.125 61.875 164.094 61.9375C163.969 62.625 163.781 63.1875 163.531 63.625C163.281 64.0625 163.375 64.375 163.812 64.5625ZM188.562 58.0938C188.875 58.0625 189.125 57.9219 189.312 57.6719C189.438 57.5156 189.656 57.3125 189.969 57.0625C190.062 57 190.156 56.9375 190.25 56.875C190.344 56.8125 190.453 56.75 190.578 56.6875C190.703 56.625 190.812 56.5625 190.906 56.5C191 56.4375 191.094 56.375 191.188 56.3125C192 55.7188 192.703 55.0938 193.297 54.4375C193.891 53.8125 194.562 53.2188 195.312 52.6562C195.719 52.1875 196.125 51.75 196.531 51.3438C196.969 50.9062 197.391 50.4844 197.797 50.0781C198.578 49.3281 199.344 48.4375 200.094 47.4062C201.094 46.6562 202.031 45.8438 202.906 44.9688C203.5 44.5938 203.984 44.2344 204.359 43.8906C204.734 43.5469 205.25 43.1875 205.906 42.8125C206.219 42.4375 206.562 42.0312 206.938 41.5938C207.312 41.1562 207.75 40.7812 208.25 40.4688C208.781 39.9375 209.328 39.5625 209.891 39.3438C210.453 39.125 211 38.75 211.531 38.2188C212.469 37.7188 213.312 37.6406 214.062 37.9844C214.812 38.3281 215.406 38.75 215.844 39.25C216.062 39.8125 216.438 40.4062 216.969 41.0312C217.031 41.125 217.094 41.2188 217.156 41.3125C217.219 41.4062 217.281 41.4844 217.344 41.5469C217.469 41.6719 217.531 41.9062 217.531 42.25C217.531 42.9688 217.438 43.6875 217.25 44.4062C217.156 44.75 217.062 45.0938 216.969 45.4375C216.906 45.7812 216.844 46.125 216.781 46.4688C216.719 46.9062 216.672 47.3438 216.641 47.7812C216.609 48.1875 216.578 48.6094 216.547 49.0469C216.516 49.8594 216.375 50.7188 216.125 51.625C216.469 52.125 216.766 52.6562 217.016 53.2188C217.266 53.8125 217.562 54.2812 217.906 54.625C218.125 54.5938 218.406 54.3438 218.75 53.875C218.906 53.75 219.062 53.6406 219.219 53.5469C219.406 53.4219 219.609 53.2969 219.828 53.1719C220.266 52.9219 220.625 52.6562 220.906 52.375C221.156 52.125 221.391 51.8906 221.609 51.6719C221.828 51.4531 222.047 51.25 222.266 51.0625C222.734 50.6562 223.156 50.2188 223.531 49.75C223.75 49.5312 223.969 49.3281 224.188 49.1406C224.406 48.9219 224.625 48.7188 224.844 48.5312C225.062 48.3438 225.281 48.1562 225.5 47.9688C225.75 47.75 226 47.5312 226.25 47.3125C226.5 47.0625 226.734 46.8125 226.953 46.5625C227.172 46.2812 227.391 46.0156 227.609 45.7656C227.828 45.5156 228.047 45.2656 228.266 45.0156C228.484 44.7344 228.719 44.4688 228.969 44.2188C229.188 43.9375 229.391 43.7656 229.578 43.7031C229.797 43.6094 229.969 43.4062 230.094 43.0938C230.562 42.875 230.984 42.5312 231.359 42.0625C231.703 41.625 232.188 41.3125 232.812 41.125C233.438 41.0625 233.844 41.0625 234.031 41.125C234.219 41.1875 234.5 41.4062 234.875 41.7812C235.188 42 235.422 42.3125 235.578 42.7188C235.734 43.125 235.969 43.4375 236.281 43.6562C236.844 44.7812 237.281 45.4688 237.594 45.7188C237.812 46.2188 237.859 46.7188 237.734 47.2188L237.312 48.7188C237.281 49.0938 237.25 49.4062 237.219 49.6562C237.188 49.875 237.156 50.0469 237.125 50.1719C237.094 50.2969 237.062 50.4219 237.031 50.5469C237 50.6719 236.969 50.8125 236.938 50.9688C236.562 53.1562 236 55.2812 235.25 57.3438C235.281 57.7812 235.406 58.2344 235.625 58.7031C235.812 59.0781 235.875 59.625 235.812 60.3438C236.188 60.4062 236.547 60.4062 236.891 60.3438C237.234 60.2812 237.531 60.2188 237.781 60.1562C239.094 59.625 240.344 58.9375 241.531 58.0938C242.344 57.4688 243.188 56.8594 244.062 56.2656C244.969 55.6406 245.812 55.0312 246.594 54.4375C246.875 54.2188 247.125 53.9844 247.344 53.7344C247.562 53.4844 247.812 53.25 248.094 53.0312C248.719 52.5312 249.328 52.125 249.922 51.8125C250.516 51.5 251.125 51.1875 251.75 50.875C252.062 50.6875 252.312 50.5 252.5 50.3125C252.688 50.125 252.906 49.9062 253.156 49.6562C253.469 49.3438 253.906 49.0156 254.469 48.6719C255.031 48.3281 255.562 48.0312 256.062 47.7812C256.938 47.75 257.391 47.8906 257.422 48.2031L257.562 49.0938C256.75 49.6562 255.984 50.2344 255.266 50.8281C254.547 51.4219 253.812 52.0312 253.062 52.6562C252.875 52.7812 252.703 52.8906 252.547 52.9844C252.391 53.0781 252.156 53.1875 251.844 53.3125C251.594 53.5 251.422 53.6719 251.328 53.8281C251.234 53.9844 251.031 54.1562 250.719 54.3438C250.531 54.5 250.344 54.6562 250.156 54.8125C249.969 54.9375 249.781 55.0781 249.594 55.2344C249.219 55.5156 248.875 55.8125 248.562 56.125C248.125 56.4375 247.719 56.75 247.344 57.0625C246.969 57.375 246.625 57.6875 246.312 58C245.969 58.3438 245.688 58.6875 245.469 59.0312C245.281 59.3438 244.969 59.6875 244.531 60.0625C244.219 60.1875 243.953 60.3438 243.734 60.5312L243.031 61.0938C242.906 61.4688 242.812 61.7969 242.75 62.0781C242.719 62.3281 242.531 62.625 242.188 62.9688C241.688 63.4062 241.391 63.7031 241.297 63.8594C241.203 64.0156 241.062 64.1875 240.875 64.375C240.75 64.4688 240.531 64.5781 240.219 64.7031C240.094 64.7344 239.969 64.7812 239.844 64.8438C239.719 64.9062 239.594 64.9688 239.469 65.0312C239.188 65.1875 238.906 65.4062 238.625 65.6875C238.5 65.8125 238.359 65.9375 238.203 66.0625C238.078 66.1875 237.938 66.3125 237.781 66.4375C237.531 66.5938 237.297 66.7344 237.078 66.8594C236.859 66.9844 236.672 67.1094 236.516 67.2344C236.266 67.4219 235.812 67.5938 235.156 67.75C234.5 68.1875 234.031 68.3906 233.75 68.3594C233.562 68.3281 233.25 68.3438 232.812 68.4062C232.656 68.4688 232.516 68.4062 232.391 68.2188C232.266 68.0312 232.094 67.9375 231.875 67.9375C231.469 67.5625 231.156 67.4062 230.938 67.4688C230.688 67.5312 230.469 67.5 230.281 67.375C229.656 66.6562 229.344 66.125 229.344 65.7812C229.344 65.5938 229.328 65.4062 229.297 65.2188C229.297 65 229.281 64.7812 229.25 64.5625C229.125 63.625 229 62.6719 228.875 61.7031C228.75 60.7344 228.656 59.7188 228.594 58.6562C228.594 58.2188 228.641 57.8125 228.734 57.4375C228.859 56.9688 228.938 56.5625 228.969 56.2188C228.969 56.0625 228.938 55.8281 228.875 55.5156C228.812 55.2031 228.781 55 228.781 54.9062C228.844 54.375 228.938 53.9062 229.062 53.5C229.188 53.125 229.219 52.6875 229.156 52.1875C228.75 52.6562 228.391 53.0625 228.078 53.4062C227.766 53.7188 227.5 53.9844 227.281 54.2031C227.062 54.4219 226.844 54.6406 226.625 54.8594C226.438 55.0781 226.25 55.3125 226.062 55.5625C225.094 56.125 224.281 56.6719 223.625 57.2031C222.938 57.7656 222.094 58.2188 221.094 58.5625C220.656 59 220.219 59.4219 219.781 59.8281C219.375 60.2031 218.969 60.5625 218.562 60.9062C218.156 61.25 217.734 61.625 217.297 62.0312C216.891 62.4062 216.469 62.8125 216.031 63.25C215 64.5938 213.875 65.5938 212.656 66.25C212.219 66.375 211.875 66.4531 211.625 66.4844C211.375 66.5156 211.125 66.4375 210.875 66.25C209.562 65.5 208.781 64.5312 208.531 63.3438C208.281 62.1562 208.312 60.8438 208.625 59.4062C208.344 58.8125 208.375 57.9688 208.719 56.875C209.094 55.75 209.156 54.9375 208.906 54.4375C209 53.9688 209.109 53.5 209.234 53.0312C209.359 52.5312 209.5 52.0312 209.656 51.5312C209.812 51.0312 209.938 50.5469 210.031 50.0781C210.156 49.5781 210.25 49.0938 210.312 48.625C210.625 48.1875 210.672 47.8438 210.453 47.5938C210.234 47.3438 210.031 47.125 209.844 46.9375C208.781 47.5625 207.766 48.2969 206.797 49.1406C205.828 49.9844 204.844 50.8438 203.844 51.7188C203.594 51.9375 203.344 52.1562 203.094 52.375C202.875 52.5625 202.641 52.7656 202.391 52.9844C202.172 53.2031 201.938 53.4219 201.688 53.6406C201.438 53.8281 201.188 54.0312 200.938 54.25L199.438 55.5156C198.906 55.9531 198.469 56.4062 198.125 56.875C197.719 57.4375 197.391 57.8125 197.141 58L196.531 58.4688C196.25 58.625 196 58.8125 195.781 59.0312C195.656 59.1562 195.469 59.3125 195.219 59.5C195.031 59.6562 194.781 59.7969 194.469 59.9219L193.625 60.25C193.25 60.5 192.859 60.8281 192.453 61.2344C192.047 61.6406 191.688 62 191.375 62.3125C191.125 62.5625 190.844 62.8125 190.531 63.0625C190.188 63.3438 189.938 63.5938 189.781 63.8125C189.406 64.3438 188.953 64.9062 188.422 65.5C188.203 65.75 187.969 66.0156 187.719 66.2969C187.5 66.5469 187.281 66.8125 187.062 67.0938C187.031 67.375 186.859 67.6719 186.547 67.9844L185.656 68.875C185.531 69 185.406 69.1406 185.281 69.2969C185.156 69.4219 185.016 69.5625 184.859 69.7188C184.609 70 184.312 70.2188 183.969 70.375L183.312 70.5156C182.969 70.5781 182.719 70.6562 182.562 70.75C182.375 70.8125 182.188 70.875 182 70.9375C181.781 71.0312 181.562 71.125 181.344 71.2188C180.938 71.4062 180.469 71.4688 179.938 71.4062L178.812 71.2656C178.531 71.2344 178.219 71.0938 177.875 70.8438C177.875 70.3438 177.719 70 177.406 69.8125C177.562 68.9688 177.766 68.2188 178.016 67.5625C178.266 66.875 178.469 66.1562 178.625 65.4062C179.094 64.75 179.453 64.0469 179.703 63.2969C179.953 62.5469 180.281 61.7812 180.688 61C180.969 60.2188 181.297 59.4062 181.672 58.5625L182.656 56.3125C182.781 55.9375 182.891 55.5781 182.984 55.2344C183.109 54.8906 183.219 54.5625 183.312 54.25C183.5 53.5938 183.75 53.0312 184.062 52.5625C184.469 51.9062 184.688 51.4375 184.719 51.1562C185.406 50.3438 185.75 49.5 185.75 48.625C186.094 48.25 186.344 47.7188 186.5 47.0312C186.656 46.375 186.844 45.7812 187.062 45.25C187.188 45 187.297 44.7812 187.391 44.5938C187.484 44.4062 187.562 44.1562 187.625 43.8438C187.688 43.4375 187.703 43.1406 187.672 42.9531C187.641 42.7031 187.719 42.4062 187.906 42.0625C188.031 41.9062 188.156 41.7656 188.281 41.6406C188.406 41.5156 188.531 41.3906 188.656 41.2656C188.781 41.1406 188.906 41.0156 189.031 40.8906C189.156 40.7656 189.281 40.625 189.406 40.4688C189.688 40.4375 189.906 40.2812 190.062 40C190.219 39.75 190.406 39.5625 190.625 39.4375C191.312 39.2188 191.703 39.0625 191.797 38.9688C191.922 38.8438 192 38.7812 192.031 38.7812L193.438 38.0781C193.531 38.0156 193.625 37.9688 193.719 37.9375C193.844 37.875 193.969 37.8125 194.094 37.75C194.219 37.6875 194.328 37.6406 194.422 37.6094C194.516 37.5781 194.594 37.5469 194.656 37.5156C194.719 37.4844 194.797 37.4531 194.891 37.4219C194.984 37.3906 195.094 37.3438 195.219 37.2812C195.375 37.125 195.625 36.9375 195.969 36.7188C196.312 36.5 196.562 36.3125 196.719 36.1562C197.344 36.4062 197.875 36.7969 198.312 37.3281C198.75 37.8594 198.875 38.5625 198.688 39.4375C198.625 39.75 198.531 40.0469 198.406 40.3281C198.281 40.6094 198.156 40.875 198.031 41.125C197.938 41.3438 197.859 41.6406 197.797 42.0156C197.734 42.3906 197.656 42.6562 197.562 42.8125C197.125 43.5938 196.844 44.1719 196.719 44.5469C196.562 45.0156 196.406 45.4062 196.25 45.7188C196 46.125 195.781 46.5312 195.594 46.9375C195.406 47.4375 195.234 47.8438 195.078 48.1562C194.922 48.4688 194.688 48.7812 194.375 49.0938C194.125 49.4062 193.938 49.625 193.812 49.75C193.594 49.9688 193.406 50.2188 193.25 50.5C193.031 50.7812 192.812 51.0781 192.594 51.3906C192.375 51.7031 192.156 52.0312 191.938 52.375C191.531 53.0312 191.062 53.6562 190.531 54.25L189.547 56.125C189.234 56.7188 188.906 57.375 188.562 58.0938ZM268.625 23.0312L269.562 23.3125C269.688 23.4688 269.75 23.6562 269.75 23.875C269.75 24.0312 269.844 24.1875 270.031 24.3438C269.906 24.9062 269.797 25.4844 269.703 26.0781C269.609 26.6719 269.562 27.25 269.562 27.8125C269.562 28.0312 269.641 28.25 269.797 28.4688C269.953 28.6875 270.031 28.875 270.031 29.0312C269.719 29.75 269.484 30.1875 269.328 30.3438C269.172 30.5 269.094 30.6562 269.094 30.8125C268.781 30.9375 268.547 31.125 268.391 31.375C268.234 31.625 267.969 31.75 267.594 31.75C267.469 31.9375 267.328 32.0781 267.172 32.1719C266.984 32.2969 266.875 32.4688 266.844 32.6875C265.812 33.125 264.688 33.0938 263.469 32.5938C263.125 32 262.688 31.5938 262.156 31.375C261.344 30.1875 261.312 28.7812 262.062 27.1562C262.188 26.8438 262.328 26.5156 262.484 26.1719C262.641 25.8281 262.781 25.5938 262.906 25.4688C263.562 25 264.062 24.6875 264.406 24.5312C264.531 24.4688 264.656 24.4062 264.781 24.3438C264.938 24.25 265.078 24.1562 265.203 24.0625C265.422 23.9062 265.75 23.75 266.188 23.5938C266.375 23.5312 266.547 23.5 266.703 23.5C266.953 23.5 267.188 23.4375 267.406 23.3125C267.531 23.2812 267.641 23.25 267.734 23.2188C267.859 23.1875 267.969 23.1562 268.062 23.125C268.312 23.0625 268.5 23.0312 268.625 23.0312ZM254.562 64.5625L255.031 64.75C255.594 64.5 256.281 64.4062 257.094 64.4688C257.938 64.5312 258.594 64.4062 259.062 64.0938C259.375 63.8438 259.594 63.6562 259.719 63.5312C259.906 63.3438 260.125 63.2812 260.375 63.3438C261.375 62.9688 262.219 62.5938 262.906 62.2188C263.625 61.8438 264.375 61.5625 265.156 61.375C265.656 61.1875 266.094 60.9062 266.469 60.5312C267.75 60.125 268.828 59.5469 269.703 58.7969C270.609 58.0469 271.594 57.25 272.656 56.4062C273.531 55.9062 274.266 55.4688 274.859 55.0938C275.453 54.7188 276.094 54.25 276.781 53.6875C276.938 53.3438 277.109 53.1094 277.297 52.9844C277.453 52.8906 277.625 52.6875 277.812 52.375C278.938 52.375 279.562 52.8125 279.688 53.6875C279.375 54.375 278.953 54.9375 278.422 55.375C277.859 55.8438 277.375 56.3438 276.969 56.875C276.469 57.1875 276.062 57.4688 275.75 57.7188C275.438 57.9688 275.125 58.3438 274.812 58.8438C274.781 58.8438 274.594 58.9844 274.25 59.2656C273.938 59.5469 273.75 59.6875 273.688 59.6875C273.188 60.2812 272.812 60.6406 272.562 60.7656C272.312 60.8906 271.875 61.2188 271.25 61.75C270.844 62.4375 270.281 63 269.562 63.4375C268.219 64.7188 266.797 65.7969 265.297 66.6719C264.516 67.1094 263.781 67.5625 263.094 68.0312C262.406 68.4688 261.75 68.9062 261.125 69.3438C260.812 69.5312 260.594 69.7031 260.469 69.8594C260.344 70.0156 260.125 70.2188 259.812 70.4688C259.5 70.7188 259.016 70.9688 258.359 71.2188C257.703 71.4688 257.125 71.6875 256.625 71.875C256.219 72.125 255.875 72.3125 255.594 72.4375C254.188 72.5 253.125 72.2812 252.406 71.7812C251.594 71.3438 250.969 71 250.531 70.75C250.094 70.5 249.719 70.0938 249.406 69.5312C248.688 69.1875 248.266 68.6094 248.141 67.7969C248.078 67.3594 248 66.9375 247.906 66.5312C247.812 66.125 247.719 65.7188 247.625 65.3125C247.562 65 247.5 64.6406 247.438 64.2344C247.375 63.8281 247.375 63.4062 247.438 62.9688C247.594 62.25 247.688 61.5156 247.719 60.7656C247.75 60.0781 247.906 59.4062 248.188 58.75C248.469 58.125 248.641 57.4375 248.703 56.6875C248.766 55.9375 248.938 55.25 249.219 54.625C249.625 54 249.797 53.6562 249.734 53.5938C249.703 53.5625 249.719 53.4688 249.781 53.3125L250.203 52.75C250.297 52.625 250.438 52.4062 250.625 52.0938L251.188 50.6875C251.469 50.1562 251.75 49.7188 252.031 49.375C252.312 49 252.562 48.4688 252.781 47.7812C252.938 47.3438 253.109 47 253.297 46.75C253.422 46.5938 253.531 46.4375 253.625 46.2812C253.75 46.0938 253.875 45.9062 254 45.7188C254.156 45.4062 254.312 45.0156 254.469 44.5469C254.531 44.3281 254.594 44.125 254.656 43.9375C254.75 43.7188 254.844 43.5 254.938 43.2812C255.125 42.7812 255.359 42.2812 255.641 41.7812C255.922 41.2812 256.219 40.7812 256.531 40.2812C256.781 39.7812 257 39.4062 257.188 39.1562C257.375 38.9062 257.75 38.75 258.312 38.6875C258.594 38.625 258.875 38.6406 259.156 38.7344C259.5 38.8281 259.812 38.8125 260.094 38.6875C260.906 38.3125 261.469 38.125 261.781 38.125C262.094 38.125 262.312 38.0312 262.438 37.8438C263.094 37.875 263.594 38.0938 263.938 38.5C264.281 38.875 264.656 39.25 265.062 39.625C264.688 41.4375 264.266 42.8281 263.797 43.7969C263.328 44.7656 262.812 45.7812 262.25 46.8438C261.938 47.3438 261.625 47.9062 261.312 48.5312C261 49.1562 260.719 49.7188 260.469 50.2188C260.156 50.9062 259.828 51.5156 259.484 52.0469C259.078 52.6719 258.781 53.2812 258.594 53.875L258.172 54.7656C257.984 55.1406 257.844 55.4375 257.75 55.6562C257.688 55.875 257.609 56.0938 257.516 56.3125C257.453 56.5 257.359 56.6719 257.234 56.8281C257.109 56.9844 257 57.1562 256.906 57.3438C256.812 57.5 256.719 57.6562 256.625 57.8125C256.438 58.1875 256.25 58.5625 256.062 58.9375C255.875 59.3125 255.719 59.7188 255.594 60.1562C255.281 60.8438 255.094 61.2969 255.031 61.5156C255 61.5781 254.969 61.6562 254.938 61.75C254.906 61.8125 254.875 61.875 254.844 61.9375C254.719 62.625 254.531 63.1875 254.281 63.625C254.031 64.0625 254.125 64.375 254.562 64.5625Z" fill="#0AB58C"/>
</svg>
